<svg id="Layer_1" data-name="Layer 1" xmlns="http://www.w3.org/2000/svg" viewBox="0 0 311.62 50.81"><defs><style>.cls-1{fill:#848484;}</style></defs><path d="M25.73,31.8l-11-26.15L3.54,31.8H0L13.07,1.18A1.85,1.85,0,0,1,14.72,0a1.75,1.75,0,0,1,1.64,1.14l13,30.62Z"/><path d="M65.92,16.2A15.61,15.61,0,0,1,50.1,31.8H40.36A1.78,1.78,0,0,1,38.59,30V2.32A1.72,1.72,0,0,1,40.36.59H50.1A15.68,15.68,0,0,1,65.92,16.2Zm-3.21,0A12.42,12.42,0,0,0,50.1,3.75H41.75V28.64H50.1A12.42,12.42,0,0,0,62.71,16.2Z"/><path d="M102.82.59,89.87,31.08a1.75,1.75,0,0,1-1.64,1.14,1.85,1.85,0,0,1-1.65-1.14L73.51.59h3.37L88.23,26.91,99.4.59Z"/><path d="M131.92,31.8l-11-26.15L109.74,31.8h-3.55L119.27,1.18A1.85,1.85,0,0,1,120.91,0a1.77,1.77,0,0,1,1.65,1.14L135.51,31.8Z"/><path d="M171.14.59V30.41a1.81,1.81,0,0,1-1.85,1.85,1.94,1.94,0,0,1-1.48-.71L148,5.69V31.8h-3.17v-30A1.87,1.87,0,0,1,148.12.72l19.86,26V.59Z"/><path d="M207.62,3.75H196V31.8h-3.17v-28h-11.6V.59h26.36Z"/><path d="M237.14,31.8l-11-26.15L215,31.8h-3.54L224.49,1.18A1.85,1.85,0,0,1,226.14,0a1.76,1.76,0,0,1,1.64,1.14L240.73,31.8Z"/><path d="M276.87,17.5v7.26a1.37,1.37,0,0,1-.21.71,15.51,15.51,0,0,1-13.24,6.79A16.13,16.13,0,0,1,247.48,16a15.86,15.86,0,0,1,28-10.29L273.16,7.8a12.52,12.52,0,0,0-9.74-4.72A12.8,12.8,0,0,0,250.6,16a13.06,13.06,0,0,0,12.82,13.21,12.14,12.14,0,0,0,10.29-5V17.5Z"/><path d="M287.84,14.59h23.78v3.17H291V28.64h20.62V31.8H289.69A1.81,1.81,0,0,1,287.84,30"/><path d="M269.49,17.73h-5.8V14.57h13.18v3.16h-5.8"/><path class="cls-1" d="M286.2,50.81,287.84,2.4A1.81,1.81,0,0,1,289.69.59h21.93V3.75H287.84"/></svg>