<svg xmlns="http://www.w3.org/2000/svg" xmlns:xlink="http://www.w3.org/1999/xlink" id="Layer_1" x="0px" y="0px" viewBox="0 0 252.1 73.4" style="enable-background:new 0 0 252.1 73.4;" xml:space="preserve"><style type="text/css">	.st0{fill:#1C75BC;stroke:#1C75BC;stroke-width:3;stroke-miterlimit:10;}	.st1{stroke:#000000;stroke-width:4;stroke-miterlimit:10;}	.st2{stroke:#000000;stroke-width:1.1;stroke-miterlimit:10;}	.st3{fill:#1C75BC;}</style><line class="st0" x1="36.5" y1="20" x2="36.5" y2="5.5"></line><line class="st0" x1="36.5" y1="70.6" x2="36.5" y2="56"></line><line class="st0" x1="54.5" y1="38" x2="69" y2="38"></line><line class="st0" x1="3.9" y1="38" x2="18.5" y2="38"></line><line class="st0" x1="49.2" y1="25.3" x2="59.5" y2="15"></line><line class="st0" x1="13.4" y1="61.1" x2="23.7" y2="50.8"></line><line class="st0" x1="49.2" y1="50.8" x2="59.5" y2="61.1"></line><line class="st0" x1="13.4" y1="15" x2="23.7" y2="25.3"></line><line class="st1" x1="35.5" y1="39.1" x2="71.9" y2="2.8"></line><line class="st1" x1="37.6" y1="39.2" x2="13.4" y2="15"></line><line class="st2" x1="53.1" y1="31.3" x2="66.6" y2="25.8"></line><line class="st2" x1="6.3" y1="50.3" x2="19.8" y2="44.8"></line><line class="st2" x1="43.2" y1="54.7" x2="48.7" y2="68.2"></line><line class="st2" x1="24.2" y1="7.9" x2="29.7" y2="21.4"></line><line class="st2" x1="53" y1="45" x2="66.5" y2="50.7"></line><line class="st2" x1="6.5" y1="25.4" x2="19.9" y2="31"></line><line class="st2" x1="29.5" y1="54.6" x2="23.8" y2="68"></line><line class="st2" x1="49.1" y1="8" x2="43.5" y2="21.5"></line><g>	<path d="M106.1,54.9h-5.2V38.6c0-3.8-0.2-6.3-0.5-7.7c-0.4-1.4-0.9-2.5-1.6-3.5c-0.7-0.9-1.6-1.6-2.6-2.1c-1.1-0.5-2.4-0.7-3.9-0.7  c-1.5,0-3,0.4-4.5,1.1c-1.5,0.8-2.7,1.8-3.8,3.1c-1,1.3-1.8,2.8-2.2,4.3c-0.4,1.5-0.6,4.5-0.6,9v12.7h-5.2V20.6h5.2v5.2  c3.4-4,7.4-6,12.1-6c2.5,0,4.7,0.6,6.7,1.9c2,1.3,3.5,3,4.5,5.3c1,2.2,1.5,5.7,1.5,10.3V54.9z"></path>	<path class="st3" d="M138.7,25.2h-6.8v24c0,0.9,0.1,1.4,0.4,1.6s0.9,0.3,1.9,0.3h3v4.5c-2,0.3-3.5,0.5-4.6,0.5  c-2,0-3.5-0.5-4.5-1.5c-1-1-1.4-2.5-1.4-4.7V25.2h-5.9v-4.5h5.9V7.8h5.2v12.9h6.8V25.2z"></path>	<path class="st3" d="M146.1,7.8c1.1,0,2.1,0.4,2.9,1.2c0.8,0.8,1.2,1.7,1.2,2.8c0,1.1-0.4,2.1-1.2,2.8c-0.8,0.8-1.7,1.2-2.8,1.2  c-1.1,0-2.1-0.4-2.8-1.2c-0.8-0.8-1.2-1.7-1.2-2.8c0-1.1,0.4-2,1.2-2.8C144.1,8.2,145,7.8,146.1,7.8z M148.8,54.9h-5.2V20.6h5.2  V54.9z"></path>	<path class="st3" d="M207.5,54.9h-5.3V36.2c0-3-0.2-5.2-0.5-6.5c-0.4-1.4-1.1-2.5-2.3-3.5c-1.2-0.9-2.8-1.4-4.7-1.4  s-3.8,0.6-5.5,1.9s-2.9,3-3.6,5.1c-0.7,2.2-1,5.4-1,9.6v13.5h-5.1V37.4c0-3.4-0.2-5.9-0.5-7.4c-0.4-1.5-1.1-2.7-2.4-3.7  c-1.2-1-2.7-1.4-4.6-1.4c-1.8,0-3.6,0.6-5.2,1.7c-1.7,1.2-2.9,2.7-3.7,4.5c-0.8,1.9-1.2,5-1.2,9.3v14.6h-5.2V20.6h5.2v4.8  c2.9-3.8,6.6-5.7,11-5.7c2.4,0,4.6,0.6,6.5,1.9c1.9,1.3,3.3,3.1,4.2,5.4c1.4-2.4,3.2-4.2,5.3-5.5s4.4-1.9,6.8-1.9  c3.3,0,6.1,1.2,8.4,3.5c2.3,2.3,3.5,6.6,3.5,13V54.9z"></path>	<path class="st3" d="M249.4,38.7h-30c0.2,3.8,1.5,6.8,3.8,9.1c2.3,2.3,5.1,3.4,8.3,3.4c5.5,0,9.7-2.7,12.6-8.1l4.4,2.3  c-2,3.6-4.3,6.3-7,8.1c-2.7,1.7-5.9,2.6-9.6,2.6c-5.2,0-9.4-1.8-12.8-5.3c-3.4-3.5-5-7.8-5-12.8c0-5,1.7-9.3,5.1-12.8  c3.4-3.6,7.6-5.3,12.5-5.3c5,0,9.2,1.7,12.5,5.1C247.6,28.2,249.3,32.8,249.4,38.7z M243.7,34.1c-0.6-2.9-2.1-5.2-4.3-6.9  c-2.2-1.6-4.8-2.5-7.7-2.5c-5.9,0-9.8,3.1-11.7,9.3H243.7z"></path></g></svg>