<?xml version="1.0" encoding="UTF-8"?>
<svg id="Layer_2" data-name="Layer 2" xmlns="http://www.w3.org/2000/svg" viewBox="0 0 311.62 32.26">
  <defs>
    <style>
      .cls-1 {
        fill: #848484;
      }

      .cls-2 {
        fill: #fff;
      }
    </style>
  </defs>
  <g id="Layer_1-2" data-name="Layer 1">
    <g>
      <path class="cls-2" d="M25.73,31.8L14.72,5.65,3.54,31.8H0L13.07,1.18c.34-.72.97-1.14,1.64-1.14.72,0,1.35.42,1.65,1.14l12.95,30.62h-3.58Z"/>
      <path class="cls-2" d="M65.92,16.2c0,8.73-7.04,15.6-15.82,15.6h-9.74c-.97,0-1.77-.8-1.77-1.77V2.32c0-.97.76-1.73,1.77-1.73h9.74c8.73,0,15.82,6.92,15.82,15.6ZM62.71,16.2c.04-6.96-5.61-12.44-12.61-12.44h-8.35v24.88h8.35c7.04,0,12.57-5.44,12.61-12.44Z"/>
      <path class="cls-2" d="M102.82.59l-12.95,30.49c-.3.72-.93,1.14-1.65,1.14-.67,0-1.31-.42-1.64-1.14L73.51.59h3.37l11.35,26.32L99.4.59h3.42Z"/>
      <path class="cls-2" d="M131.92,31.8l-11.01-26.15-11.18,26.15h-3.54L119.27,1.18c.34-.72.97-1.14,1.64-1.14.72,0,1.35.42,1.65,1.14l12.95,30.62h-3.58Z"/>
      <path class="cls-2" d="M171.14.59v29.82c0,1.05-.8,1.86-1.86,1.86-.59,0-1.14-.3-1.48-.72l-19.86-25.85v26.11h-3.16V1.81c0-1.01.8-1.81,1.86-1.81.63,0,1.1.25,1.48.72l19.86,26.02V.59h3.16Z"/>
      <path class="cls-2" d="M207.62,3.75h-11.6v28.05h-3.16V3.75h-11.6V.59h26.36v3.16Z"/>
      <path class="cls-2" d="M237.14,31.8l-11.01-26.15-11.18,26.15h-3.54l13.07-30.62c.34-.72.97-1.14,1.64-1.14.72,0,1.35.42,1.64,1.14l12.95,30.62h-3.58Z"/>
      <path class="cls-2" d="M276.87,17.5v7.25c0,.25-.08.51-.21.72-2.83,4.3-7.72,6.79-13.24,6.79-8.77,0-15.94-7.3-15.94-16.28S254.65.04,263.42.04c4.81,0,9.15,2.19,12.06,5.65l-2.32,2.11c-2.32-2.87-5.82-4.72-9.74-4.72-7.08,0-12.78,5.65-12.82,12.91.04,7.25,5.74,13.2,12.82,13.2,4.26,0,8.01-1.73,10.29-5.02v-6.66h3.16Z"/>
      <path class="cls-2" d="M287.84,14.59h23.79v3.16h-20.62v10.88h20.62v3.16h-21.93c-1.05,0-1.86-.8-1.86-1.81"/>
      <path class="cls-2" d="M269.49,17.73h-5.8v-3.16h13.18v3.16h-5.8"/>
      <path class="cls-1" d="M287.84,2.4c0-1.01.8-1.81,1.86-1.81h21.93v3.16l-23.79-.02"/>
    </g>
  </g>
</svg>