<?xml version="1.0" encoding="utf-8"?>
<!-- Generator: Adobe Illustrator 26.0.2, SVG Export Plug-In . SVG Version: 6.00 Build 0)  -->
<svg version="1.1" id="Layer_1" xmlns="http://www.w3.org/2000/svg" xmlns:xlink="http://www.w3.org/1999/xlink" x="0px" y="0px"
	 viewBox="0 0 841.89 242.87" style="enable-background:new 0 0 841.89 242.87;" xml:space="preserve">
<style type="text/css">
	.st0{fill:#14294E;}
	.st1{font-family:'Arial-BoldMT';}
	.st2{font-size:80.9276px;}
</style>
<path class="st0" d="M131.25,93.1h-27.87c-10.14,2.03-9.37,10.17-9.37,10.17h37.18"/>
<path class="st0" d="M151.22,45.81V93.1h-6.01c-0.08,1.62,0,10.18,0,10.18h15.97V36.16C161.18,36.16,152.44,34.92,151.22,45.81"/>
<path class="st0" d="M85.58,109.49h47.84V62.21c1.22-10.89,9.96-9.64,9.96-9.64v67.12H76.21C76.21,119.68,75.43,111.53,85.58,109.49
	"/>
<path class="st0" d="M133.42,152.73v29.11c1.22,10.87,9.96,9.64,9.96,9.64v-38.75H133.42z"/>
<path class="st0" d="M133.42,139c2.23,0.13,4.54,0.07,6.74,0.06c0.9,0,2.1-0.1,3.22,0.01v-14.71H76.21c0,0-0.78,8.15,9.36,10.17
	l47.85,0.01V139z"/>
<path class="st0" d="M103.38,150.92h47.84v47.29c1.22,10.91,9.96,9.65,9.96,9.65v-67.11H94.01
	C94.01,140.75,93.22,148.89,103.38,150.92"/>
<path class="st0" d="M192.93,91.57V62.19c-1.22-10.89-9.96-9.63-9.96-9.63v39.01H192.93z"/>
<path class="st0" d="M240.77,109.49h-47.85v-4.45c-0.02,0-0.04,0-0.07,0h-9.88v14.63h67.17
	C250.14,119.68,250.93,111.53,240.77,109.49"/>
<path class="st0" d="M222.97,93.1h-42.75h-5.1V45.81c-1.21-10.89-9.95-9.65-9.95-9.65v67.11h15.03h52.15
	C232.35,103.27,233.12,95.13,222.97,93.1"/>
<path class="st0" d="M232.34,140.75h-37.85v10.17h28.48C233.12,148.89,232.34,140.75,232.34,140.75"/>
<path class="st0" d="M181.18,140.75h-16.01v67.12c0,0,8.75,1.25,9.96-9.64v-47.31h6.05V140.75z"/>
<path class="st0" d="M240.77,134.53h-47.85v47.29c-1.21,10.88-9.95,9.65-9.95,9.65v-67.11h67.17
	C250.14,124.36,250.93,132.51,240.77,134.53"/>
<text transform="matrix(1 0 0 1 271.0229 150.6427)" class="st0 st1 st2">EUROMETAL</text>
</svg>
