<?xml version="1.0" encoding="utf-8"?>
<!-- Generator: Adobe Illustrator 26.2.1, SVG Export Plug-In . SVG Version: 6.00 Build 0)  -->
<svg version="1.1" id="Layer_1" xmlns="http://www.w3.org/2000/svg" xmlns:xlink="http://www.w3.org/1999/xlink" x="0px" y="0px"
	 viewBox="0 0 841.9 242.9" style="enable-background:new 0 0 841.9 242.9;" xml:space="preserve">
<style type="text/css">
	.st0{fill:#FFFFFF;}
	.st1{font-family:'Arial-BoldMT';}
	.st2{font-size:80.9276px;}
</style>
<path class="st0" d="M131.2,93.1h-27.9c-10.1,2-9.4,10.2-9.4,10.2h37.2"/>
<path class="st0" d="M151.2,45.8v47.3h-6c-0.1,1.6,0,10.2,0,10.2h16V36.2C161.2,36.2,152.4,34.9,151.2,45.8"/>
<path class="st0" d="M85.6,109.5h47.8V62.2c1.2-10.9,10-9.6,10-9.6v67.1H76.2C76.2,119.7,75.4,111.5,85.6,109.5"/>
<path class="st0" d="M133.4,152.7v29.1c1.2,10.9,10,9.6,10,9.6v-38.8H133.4z"/>
<path class="st0" d="M133.4,139c2.2,0.1,4.5,0.1,6.7,0.1c0.9,0,2.1-0.1,3.2,0v-14.7H76.2c0,0-0.8,8.2,9.4,10.2l47.8,0V139z"/>
<path class="st0" d="M103.4,150.9h47.8v47.3c1.2,10.9,10,9.6,10,9.6v-67.1H94C94,140.8,93.2,148.9,103.4,150.9"/>
<path class="st0" d="M192.9,91.6V62.2c-1.2-10.9-10-9.6-10-9.6v39C183,91.6,192.9,91.6,192.9,91.6z"/>
<path class="st0" d="M240.8,109.5h-47.8V105c0,0,0,0-0.1,0H183v14.6h67.2C250.1,119.7,250.9,111.5,240.8,109.5"/>
<path class="st0" d="M223,93.1h-42.8h-5.1V45.8c-1.2-10.9-9.9-9.6-9.9-9.6v67.1h15h52.2C232.4,103.3,233.1,95.1,223,93.1"/>
<path class="st0" d="M232.3,140.8h-37.9v10.2H223C233.1,148.9,232.3,140.8,232.3,140.8"/>
<path class="st0" d="M181.2,140.8h-16v67.1c0,0,8.8,1.2,10-9.6v-47.3h6.1L181.2,140.8L181.2,140.8z"/>
<path class="st0" d="M240.8,134.5h-47.8v47.3c-1.2,10.9-9.9,9.6-9.9,9.6v-67.1h67.2C250.1,124.4,250.9,132.5,240.8,134.5"/>
<text transform="matrix(1 0 0 1 271.0229 150.6427)" class="st0 st1 st2">EUROMETAL</text>
</svg>
