<svg id="Layer_1" data-name="Layer 1" xmlns="http://www.w3.org/2000/svg" viewBox="0 0 245.5 69.31"><defs><style>.cls-1,.cls-3,.cls-5{fill:#fff;}.cls-1,.cls-3,.cls-4{stroke:#fff;}.cls-1,.cls-2,.cls-3,.cls-4{stroke-miterlimit:10;}.cls-1,.cls-2{stroke-width:3px;}.cls-2,.cls-4{fill:none;}.cls-2{stroke:#1c75bc;}.cls-3{stroke-width:4px;}</style></defs><line class="cls-1" x1="32.6" y1="18.71" x2="32.6" y2="4.11"/><line class="cls-1" x1="32.6" y1="69.31" x2="32.6" y2="54.71"/><line class="cls-1" x1="50.6" y1="36.71" x2="65.1" y2="36.71"/><line class="cls-1" y1="36.71" x2="14.6" y2="36.71"/><line class="cls-2" x1="45.3" y1="24.01" x2="55.6" y2="13.71"/><line class="cls-1" x1="9.5" y1="59.71" x2="19.8" y2="49.41"/><line class="cls-1" x1="45.3" y1="49.41" x2="55.6" y2="59.71"/><line class="cls-2" x1="9.5" y1="13.71" x2="19.8" y2="24.01"/><line class="cls-3" x1="31.6" y1="37.79" x2="68" y2="1.41"/><line class="cls-1" x1="33.7" y1="37.81" x2="9.5" y2="13.71"/><line class="cls-4" x1="49.2" y1="29.91" x2="62.7" y2="24.41"/><line class="cls-4" x1="2.4" y1="49.01" x2="15.9" y2="43.51"/><line class="cls-4" x1="39.3" y1="53.41" x2="44.8" y2="66.91"/><line class="cls-4" x1="20.3" y1="6.51" x2="25.8" y2="20.01"/><line class="cls-4" x1="49.1" y1="43.71" x2="62.6" y2="49.31"/><line class="cls-4" x1="2.6" y1="24.01" x2="16" y2="29.71"/><line class="cls-4" x1="25.6" y1="53.31" x2="19.9" y2="66.71"/><line class="cls-4" x1="45.2" y1="6.71" x2="39.6" y2="20.11"/><path class="cls-5" d="M102.2,53.61H97V37.21a41.4,41.4,0,0,0-.5-7.7A11.3,11.3,0,0,0,94.9,26a7.55,7.55,0,0,0-2.6-2.1,9.37,9.37,0,0,0-3.9-.7,10.64,10.64,0,0,0-4.5,1.1,11.85,11.85,0,0,0-6,7.4,42.67,42.67,0,0,0-.6,9v12.7H72.1V19.31h5.2v5.2c3.4-4,7.4-6,12.1-6a11.91,11.91,0,0,1,6.7,1.9,11.69,11.69,0,0,1,4.5,5.3c1,2.2,1.5,5.7,1.5,10.3v17.6Z"/><path class="cls-5" d="M134.8,23.81H128v24c0,.9.1,1.4.4,1.6a3.82,3.82,0,0,0,1.9.3h3v4.5a34.75,34.75,0,0,1-4.6.5,6.11,6.11,0,0,1-4.5-1.5c-1-1-1.4-2.5-1.4-4.7V23.81h-5.9v-4.5h5.9V6.41H128v12.9h6.8v4.5Z"/><path class="cls-5" d="M142.2,6.41a4,4,0,0,1,2.9,1.2,3.78,3.78,0,0,1,1.2,2.8,3.63,3.63,0,0,1-1.2,2.8,3.78,3.78,0,0,1-2.8,1.2,3.63,3.63,0,0,1-2.8-1.2,3.87,3.87,0,0,1,0-5.6A3.42,3.42,0,0,1,142.2,6.41Zm2.7,47.2h-5.2V19.31h5.2Z"/><path class="cls-5" d="M203.6,53.61h-5.3V34.91a31.85,31.85,0,0,0-.5-6.5,6.75,6.75,0,0,0-2.3-3.5,7.72,7.72,0,0,0-4.7-1.4,9,9,0,0,0-5.5,1.9,10.4,10.4,0,0,0-3.6,5.1,33.79,33.79,0,0,0-1,9.6v13.5h-5.1V36a41.45,41.45,0,0,0-.5-7.4,6.5,6.5,0,0,0-2.4-3.7,6.84,6.84,0,0,0-4.6-1.4,9.21,9.21,0,0,0-5.2,1.7,10.71,10.71,0,0,0-3.7,4.5Q158,32.56,158,39v14.6h-5.2V19.31H158v4.8a13.34,13.34,0,0,1,11-5.7,11.06,11.06,0,0,1,10.7,7.3,15.57,15.57,0,0,1,5.3-5.5,12.72,12.72,0,0,1,6.8-1.9,11.48,11.48,0,0,1,8.4,3.5c2.3,2.3,3.5,6.6,3.5,13v18.8Z"/><path class="cls-5" d="M245.5,37.31h-30a13.33,13.33,0,0,0,3.8,9.1,11.32,11.32,0,0,0,8.3,3.4q8.25,0,12.6-8.1l4.4,2.3a22.62,22.62,0,0,1-7,8.1,17.66,17.66,0,0,1-9.6,2.6,17,17,0,0,1-12.8-5.3,17.65,17.65,0,0,1-5-12.8,17.74,17.74,0,0,1,5.1-12.8,16.49,16.49,0,0,1,12.5-5.3,16.74,16.74,0,0,1,12.5,5.1C243.7,26.91,245.4,31.51,245.5,37.31Zm-5.7-4.5a11.43,11.43,0,0,0-4.3-6.9,12.89,12.89,0,0,0-7.7-2.5q-8.85,0-11.7,9.3h23.7Z"/></svg>