<?xml version="1.0" encoding="utf-8"?>
<!-- Generator: Adobe Illustrator 26.2.1, SVG Export Plug-In . SVG Version: 6.00 Build 0)  -->
<svg version="1.1" id="Layer_1" xmlns="http://www.w3.org/2000/svg" xmlns:xlink="http://www.w3.org/1999/xlink" x="0px" y="0px"
	 viewBox="0 0 257.5 75" style="enable-background:new 0 0 257.5 75;" xml:space="preserve">
<style type="text/css">
	.st0{fill:none;stroke:#1C75BC;stroke-width:3;stroke-miterlimit:10;}
	.st1{fill:none;stroke:#000000;stroke-width:4;stroke-miterlimit:10;}
	.st2{fill:none;stroke:#000000;stroke-width:1.1;stroke-miterlimit:10;}
	.st3{fill:#1C75BC;}
</style>
<line class="st0" x1="36.5" y1="21.6" x2="36.5" y2="7"/>
<line class="st0" x1="36.5" y1="72.2" x2="36.5" y2="57.6"/>
<line class="st0" x1="54.5" y1="39.6" x2="69" y2="39.6"/>
<line class="st0" x1="3.9" y1="39.6" x2="18.5" y2="39.6"/>
<line class="st0" x1="49.2" y1="26.9" x2="59.5" y2="16.6"/>
<line class="st0" x1="13.4" y1="62.6" x2="23.7" y2="52.3"/>
<line class="st0" x1="49.2" y1="52.3" x2="59.5" y2="62.6"/>
<line class="st0" x1="13.4" y1="16.6" x2="23.7" y2="26.9"/>
<line class="st1" x1="35.1" y1="41" x2="71.9" y2="4.3"/>
<line class="st1" x1="37.6" y1="40.7" x2="13.4" y2="16.6"/>
<line class="st2" x1="53.1" y1="32.8" x2="66.6" y2="27.3"/>
<line class="st2" x1="6.3" y1="51.9" x2="19.8" y2="46.4"/>
<line class="st2" x1="43.2" y1="56.3" x2="48.7" y2="69.8"/>
<line class="st2" x1="24.2" y1="9.4" x2="29.7" y2="22.9"/>
<line class="st2" x1="53" y1="46.6" x2="66.5" y2="52.2"/>
<line class="st2" x1="6.5" y1="26.9" x2="19.9" y2="32.6"/>
<line class="st2" x1="29.5" y1="56.2" x2="23.8" y2="69.6"/>
<line class="st2" x1="49.1" y1="9.6" x2="43.5" y2="23"/>
<g>
	<path d="M106.1,56.5h-5.2V40.1c0-3.8-0.2-6.3-0.5-7.7c-0.4-1.4-0.9-2.5-1.6-3.5c-0.7-0.9-1.6-1.6-2.6-2.1c-1.1-0.5-2.4-0.7-3.9-0.7
		s-3,0.4-4.5,1.1C86.3,28,85.1,29,84,30.3c-1,1.3-1.8,2.8-2.2,4.3c-0.4,1.5-0.6,4.5-0.6,9v12.7H76V22.2h5.2v5.2c3.4-4,7.4-6,12.1-6
		c2.5,0,4.7,0.6,6.7,1.9s3.5,3,4.5,5.3c1,2.2,1.5,5.7,1.5,10.3L106.1,56.5L106.1,56.5z"/>
	<path class="st3" d="M138.7,26.7h-6.8v24c0,0.9,0.1,1.4,0.4,1.6s0.9,0.3,1.9,0.3h3v4.5c-2,0.3-3.5,0.5-4.6,0.5
		c-2,0-3.5-0.5-4.5-1.5s-1.4-2.5-1.4-4.7V26.7h-5.9v-4.5h5.9V9.3h5.2v12.9h6.8L138.7,26.7L138.7,26.7z"/>
	<path class="st3" d="M146.1,9.3c1.1,0,2.1,0.4,2.9,1.2c0.8,0.8,1.2,1.7,1.2,2.8s-0.4,2.1-1.2,2.8c-0.8,0.8-1.7,1.2-2.8,1.2
		s-2.1-0.4-2.8-1.2c-0.8-0.8-1.2-1.7-1.2-2.8s0.4-2,1.2-2.8C144.1,9.7,145,9.3,146.1,9.3z M148.8,56.5h-5.2V22.2h5.2V56.5z"/>
	<path class="st3" d="M207.5,56.5h-5.3V37.8c0-3-0.2-5.2-0.5-6.5c-0.4-1.4-1.1-2.5-2.3-3.5c-1.2-0.9-2.8-1.4-4.7-1.4
		s-3.8,0.6-5.5,1.9s-2.9,3-3.6,5.1c-0.7,2.2-1,5.4-1,9.6v13.5h-5.1V38.9c0-3.4-0.2-5.9-0.5-7.4c-0.4-1.5-1.1-2.7-2.4-3.7
		c-1.2-1-2.7-1.4-4.6-1.4c-1.8,0-3.6,0.6-5.2,1.7c-1.7,1.2-2.9,2.7-3.7,4.5c-0.8,1.9-1.2,5-1.2,9.3v14.6h-5.2V22.2h5.2V27
		c2.9-3.8,6.6-5.7,11-5.7c2.4,0,4.6,0.6,6.5,1.9s3.3,3.1,4.2,5.4c1.4-2.4,3.2-4.2,5.3-5.5s4.4-1.9,6.8-1.9c3.3,0,6.1,1.2,8.4,3.5
		c2.3,2.3,3.5,6.6,3.5,13L207.5,56.5L207.5,56.5z"/>
	<path class="st3" d="M249.4,40.2h-30c0.2,3.8,1.5,6.8,3.8,9.1c2.3,2.3,5.1,3.4,8.3,3.4c5.5,0,9.7-2.7,12.6-8.1l4.4,2.3
		c-2,3.6-4.3,6.3-7,8.1c-2.7,1.7-5.9,2.6-9.6,2.6c-5.2,0-9.4-1.8-12.8-5.3c-3.4-3.5-5-7.8-5-12.8s1.7-9.3,5.1-12.8
		c3.4-3.6,7.6-5.3,12.5-5.3c5,0,9.2,1.7,12.5,5.1C247.6,29.8,249.3,34.4,249.4,40.2z M243.7,35.7c-0.6-2.9-2.1-5.2-4.3-6.9
		c-2.2-1.6-4.8-2.5-7.7-2.5c-5.9,0-9.8,3.1-11.7,9.3L243.7,35.7L243.7,35.7z"/>
</g>
</svg>
